{
  "nbformat": 4,
  "nbformat_minor": 0,
  "metadata": {
    "colab": {
      "name": "FFMPEG Video To Image.ipynb",
      "provenance": []
    },
    "kernelspec": {
      "name": "python3",
      "display_name": "Python 3"
    },
    "language_info": {
      "name": "python"
    },
    "accelerator": "GPU"
  },
  "cells": [
    {
      "cell_type": "code",
      "metadata": {
        "colab": {
          "base_uri": "https://localhost:8080/"
        },
        "id": "rLyTSZ13Ag5P",
        "outputId": "3c6ad29f-a877-45ab-da27-e9da6f2acc05"
      },
      "source": [
        "from google.colab import drive\n",
        "drive.mount('/content/drive', force_remount= True)"
      ],
      "execution_count": 1,
      "outputs": [
        {
          "output_type": "stream",
          "text": [
            "Mounted at /content/drive\n"
          ],
          "name": "stdout"
        }
      ]
    },
    {
      "cell_type": "code",
      "metadata": {
        "colab": {
          "base_uri": "https://localhost:8080/"
        },
        "id": "Q2VMRXsqAq3T",
        "outputId": "df1b34b4-9814-48b5-8ca2-cbc0bd1a874d"
      },
      "source": [
        "%cd \"/content/drive/MyDrive/EVA6\""
      ],
      "execution_count": 2,
      "outputs": [
        {
          "output_type": "stream",
          "text": [
            "/content/drive/MyDrive/EVA6\n"
          ],
          "name": "stdout"
        }
      ]
    },
    {
      "cell_type": "code",
      "metadata": {
        "colab": {
          "base_uri": "https://localhost:8080/"
        },
        "id": "AZGFVLL9Ayfm",
        "outputId": "c464c036-749f-479c-be52-c4cd2b9b738e"
      },
      "source": [
        "!pip install ffmpeg"
      ],
      "execution_count": 3,
      "outputs": [
        {
          "output_type": "stream",
          "text": [
            "Collecting ffmpeg\n",
            "  Downloading ffmpeg-1.4.tar.gz (5.1 kB)\n",
            "Building wheels for collected packages: ffmpeg\n",
            "  Building wheel for ffmpeg (setup.py) ... \u001b[?25l\u001b[?25hdone\n",
            "  Created wheel for ffmpeg: filename=ffmpeg-1.4-py3-none-any.whl size=6084 sha256=82586a8f4aeeb6c4386d3d37e22ce305b692a89a00cc80b034642f68f0ac0d3e\n",
            "  Stored in directory: /root/.cache/pip/wheels/64/80/6e/caa3e16deb0267c3cbfd36862058a724144e19fdb9eb03af0f\n",
            "Successfully built ffmpeg\n",
            "Installing collected packages: ffmpeg\n",
            "Successfully installed ffmpeg-1.4\n"
          ],
          "name": "stdout"
        }
      ]
    },
    {
      "cell_type": "code",
      "metadata": {
        "id": "CRgQDRa8A0Qm"
      },
      "source": [
        ""
      ],
      "execution_count": 3,
      "outputs": []
    },
    {
      "cell_type": "code",
      "metadata": {
        "colab": {
          "base_uri": "https://localhost:8080/"
        },
        "id": "WMQnW3SsA42F",
        "outputId": "608fefce-4f8c-49e7-b81b-6d8f9149f1f2"
      },
      "source": [
        "!ffmpeg -i './sample-video.mp4' ./video_image/image-%2d.png"
      ],
      "execution_count": 4,
      "outputs": [
        {
          "output_type": "stream",
          "text": [
            "ffmpeg version 3.4.8-0ubuntu0.2 Copyright (c) 2000-2020 the FFmpeg developers\n",
            "  built with gcc 7 (Ubuntu 7.5.0-3ubuntu1~18.04)\n",
            "  configuration: --prefix=/usr --extra-version=0ubuntu0.2 --toolchain=hardened --libdir=/usr/lib/x86_64-linux-gnu --incdir=/usr/include/x86_64-linux-gnu --enable-gpl --disable-stripping --enable-avresample --enable-avisynth --enable-gnutls --enable-ladspa --enable-libass --enable-libbluray --enable-libbs2b --enable-libcaca --enable-libcdio --enable-libflite --enable-libfontconfig --enable-libfreetype --enable-libfribidi --enable-libgme --enable-libgsm --enable-libmp3lame --enable-libmysofa --enable-libopenjpeg --enable-libopenmpt --enable-libopus --enable-libpulse --enable-librubberband --enable-librsvg --enable-libshine --enable-libsnappy --enable-libsoxr --enable-libspeex --enable-libssh --enable-libtheora --enable-libtwolame --enable-libvorbis --enable-libvpx --enable-libwavpack --enable-libwebp --enable-libx265 --enable-libxml2 --enable-libxvid --enable-libzmq --enable-libzvbi --enable-omx --enable-openal --enable-opengl --enable-sdl2 --enable-libdc1394 --enable-libdrm --enable-libiec61883 --enable-chromaprint --enable-frei0r --enable-libopencv --enable-libx264 --enable-shared\n",
            "  libavutil      55. 78.100 / 55. 78.100\n",
            "  libavcodec     57.107.100 / 57.107.100\n",
            "  libavformat    57. 83.100 / 57. 83.100\n",
            "  libavdevice    57. 10.100 / 57. 10.100\n",
            "  libavfilter     6.107.100 /  6.107.100\n",
            "  libavresample   3.  7.  0 /  3.  7.  0\n",
            "  libswscale      4.  8.100 /  4.  8.100\n",
            "  libswresample   2.  9.100 /  2.  9.100\n",
            "  libpostproc    54.  7.100 / 54.  7.100\n",
            "Input #0, mov,mp4,m4a,3gp,3g2,mj2, from './sample-video.mp4':\n",
            "  Metadata:\n",
            "    major_brand     : isom\n",
            "    minor_version   : 512\n",
            "    compatible_brands: isomiso2avc1mp41\n",
            "    title           : clideo.com\n",
            "    encoder         : Lavf58.45.100\n",
            "  Duration: 00:00:17.06, start: 0.000000, bitrate: 8183 kb/s\n",
            "    Stream #0:0(und): Video: h264 (High) (avc1 / 0x31637661), yuv420p, 1920x1080 [SAR 1:1 DAR 16:9], 7946 kb/s, 25 fps, 25 tbr, 12800 tbn, 50 tbc (default)\n",
            "    Metadata:\n",
            "      handler_name    : VideoHandler\n",
            "    Stream #0:1(eng): Audio: aac (LC) (mp4a / 0x6134706D), 44100 Hz, stereo, fltp, 256 kb/s (default)\n",
            "    Metadata:\n",
            "      handler_name    : ISO Media file produced by Google Inc.\n",
            "Stream mapping:\n",
            "  Stream #0:0 -> #0:0 (h264 (native) -> png (native))\n",
            "Press [q] to stop, [?] for help\n",
            "Output #0, image2, to './video_image/image-%2d.png':\n",
            "  Metadata:\n",
            "    major_brand     : isom\n",
            "    minor_version   : 512\n",
            "    compatible_brands: isomiso2avc1mp41\n",
            "    title           : clideo.com\n",
            "    encoder         : Lavf57.83.100\n",
            "    Stream #0:0(und): Video: png, rgb24, 1920x1080 [SAR 1:1 DAR 16:9], q=2-31, 200 kb/s, 25 fps, 25 tbn, 25 tbc (default)\n",
            "    Metadata:\n",
            "      handler_name    : VideoHandler\n",
            "      encoder         : Lavc57.107.100 png\n",
            "frame=  425 fps=6.9 q=-0.0 Lsize=N/A time=00:00:17.00 bitrate=N/A speed=0.275x    \n",
            "video:879692kB audio:0kB subtitle:0kB other streams:0kB global headers:0kB muxing overhead: unknown\n"
          ],
          "name": "stdout"
        }
      ]
    },
    {
      "cell_type": "code",
      "metadata": {
        "id": "2nPmzXgZA-c9",
        "colab": {
          "base_uri": "https://localhost:8080/"
        },
        "outputId": "bddca427-d8c8-4b2f-a612-c3425efa5f4f"
      },
      "source": [
        "!ffmpeg -start_number 0 -i ./video_image/image-%2d.png ffmpeg_video.mp4"
      ],
      "execution_count": 5,
      "outputs": [
        {
          "output_type": "stream",
          "text": [
            "ffmpeg version 3.4.8-0ubuntu0.2 Copyright (c) 2000-2020 the FFmpeg developers\n",
            "  built with gcc 7 (Ubuntu 7.5.0-3ubuntu1~18.04)\n",
            "  configuration: --prefix=/usr --extra-version=0ubuntu0.2 --toolchain=hardened --libdir=/usr/lib/x86_64-linux-gnu --incdir=/usr/include/x86_64-linux-gnu --enable-gpl --disable-stripping --enable-avresample --enable-avisynth --enable-gnutls --enable-ladspa --enable-libass --enable-libbluray --enable-libbs2b --enable-libcaca --enable-libcdio --enable-libflite --enable-libfontconfig --enable-libfreetype --enable-libfribidi --enable-libgme --enable-libgsm --enable-libmp3lame --enable-libmysofa --enable-libopenjpeg --enable-libopenmpt --enable-libopus --enable-libpulse --enable-librubberband --enable-librsvg --enable-libshine --enable-libsnappy --enable-libsoxr --enable-libspeex --enable-libssh --enable-libtheora --enable-libtwolame --enable-libvorbis --enable-libvpx --enable-libwavpack --enable-libwebp --enable-libx265 --enable-libxml2 --enable-libxvid --enable-libzmq --enable-libzvbi --enable-omx --enable-openal --enable-opengl --enable-sdl2 --enable-libdc1394 --enable-libdrm --enable-libiec61883 --enable-chromaprint --enable-frei0r --enable-libopencv --enable-libx264 --enable-shared\n",
            "  libavutil      55. 78.100 / 55. 78.100\n",
            "  libavcodec     57.107.100 / 57.107.100\n",
            "  libavformat    57. 83.100 / 57. 83.100\n",
            "  libavdevice    57. 10.100 / 57. 10.100\n",
            "  libavfilter     6.107.100 /  6.107.100\n",
            "  libavresample   3.  7.  0 /  3.  7.  0\n",
            "  libswscale      4.  8.100 /  4.  8.100\n",
            "  libswresample   2.  9.100 /  2.  9.100\n",
            "  libpostproc    54.  7.100 / 54.  7.100\n",
            "Input #0, image2, from './video_image/image-%2d.png':\n",
            "  Duration: 00:00:17.00, start: 0.000000, bitrate: N/A\n",
            "    Stream #0:0: Video: png, rgb24(pc), 1920x1080 [SAR 1:1 DAR 16:9], 25 fps, 25 tbr, 25 tbn, 25 tbc\n",
            "Stream mapping:\n",
            "  Stream #0:0 -> #0:0 (png (native) -> h264 (libx264))\n",
            "Press [q] to stop, [?] for help\n",
            "\u001b[1;36m[libx264 @ 0x562dcf565e00] \u001b[0musing SAR=1/1\n",
            "\u001b[1;36m[libx264 @ 0x562dcf565e00] \u001b[0musing cpu capabilities: MMX2 SSE2Fast SSSE3 SSE4.2 AVX FMA3 BMI2 AVX2\n",
            "\u001b[1;36m[libx264 @ 0x562dcf565e00] \u001b[0mprofile High 4:4:4 Predictive, level 4.0, 4:4:4 8-bit\n",
            "\u001b[1;36m[libx264 @ 0x562dcf565e00] \u001b[0m264 - core 152 r2854 e9a5903 - H.264/MPEG-4 AVC codec - Copyleft 2003-2017 - http://www.videolan.org/x264.html - options: cabac=1 ref=3 deblock=1:0:0 analyse=0x1:0x111 me=hex subme=7 psy=1 psy_rd=1.00:0.00 mixed_ref=1 me_range=16 chroma_me=1 trellis=1 8x8dct=0 cqm=0 deadzone=21,11 fast_pskip=1 chroma_qp_offset=4 threads=3 lookahead_threads=1 sliced_threads=0 nr=0 decimate=1 interlaced=0 bluray_compat=0 constrained_intra=0 bframes=3 b_pyramid=2 b_adapt=1 b_bias=0 direct=1 weightb=1 open_gop=0 weightp=2 keyint=250 keyint_min=25 scenecut=40 intra_refresh=0 rc_lookahead=40 rc=crf mbtree=1 crf=23.0 qcomp=0.60 qpmin=0 qpmax=69 qpstep=4 ip_ratio=1.40 aq=1:1.00\n",
            "Output #0, mp4, to 'ffmpeg_video.mp4':\n",
            "  Metadata:\n",
            "    encoder         : Lavf57.83.100\n",
            "    Stream #0:0: Video: h264 (libx264) (avc1 / 0x31637661), yuv444p, 1920x1080 [SAR 1:1 DAR 16:9], q=-1--1, 25 fps, 12800 tbn, 25 tbc\n",
            "    Metadata:\n",
            "      encoder         : Lavc57.107.100 libx264\n",
            "    Side data:\n",
            "      cpb: bitrate max/min/avg: 0/0/0 buffer size: 0 vbv_delay: -1\n",
            "frame=  425 fps=2.3 q=-1.0 Lsize=    7637kB time=00:00:16.88 bitrate=3706.1kbits/s speed=0.0904x    \n",
            "video:7631kB audio:0kB subtitle:0kB other streams:0kB global headers:0kB muxing overhead: 0.073161%\n",
            "\u001b[1;36m[libx264 @ 0x562dcf565e00] \u001b[0mframe I:8     Avg QP:19.00  size:130441\n",
            "\u001b[1;36m[libx264 @ 0x562dcf565e00] \u001b[0mframe P:152   Avg QP:22.50  size: 32627\n",
            "\u001b[1;36m[libx264 @ 0x562dcf565e00] \u001b[0mframe B:265   Avg QP:23.66  size:  6833\n",
            "\u001b[1;36m[libx264 @ 0x562dcf565e00] \u001b[0mconsecutive B-frames: 12.9% 11.3%  1.4% 74.4%\n",
            "\u001b[1;36m[libx264 @ 0x562dcf565e00] \u001b[0mmb I  I16..4: 40.4%  0.0% 59.6%\n",
            "\u001b[1;36m[libx264 @ 0x562dcf565e00] \u001b[0mmb P  I16..4: 18.1%  0.0%  6.2%  P16..4: 37.8% 11.8%  4.9%  0.0%  0.0%    skip:21.1%\n",
            "\u001b[1;36m[libx264 @ 0x562dcf565e00] \u001b[0mmb B  I16..4:  1.6%  0.0%  0.2%  B16..8: 38.7%  3.1%  0.4%  direct: 0.6%  skip:55.4%  L0:46.6% L1:49.5% BI: 3.9%\n",
            "\u001b[1;36m[libx264 @ 0x562dcf565e00] \u001b[0mcoded y,u,v intra: 25.1% 8.8% 6.8% inter: 5.2% 1.4% 1.0%\n",
            "\u001b[1;36m[libx264 @ 0x562dcf565e00] \u001b[0mi16 v,h,dc,p: 42% 32% 17%  9%\n",
            "\u001b[1;36m[libx264 @ 0x562dcf565e00] \u001b[0mi4 v,h,dc,ddl,ddr,vr,hd,vl,hu: 31% 27% 18%  4%  5%  4%  5%  3%  3%\n",
            "\u001b[1;36m[libx264 @ 0x562dcf565e00] \u001b[0mWeighted P-Frames: Y:0.0% UV:0.0%\n",
            "\u001b[1;36m[libx264 @ 0x562dcf565e00] \u001b[0mref P L0: 72.8% 12.2% 10.3%  4.7%\n",
            "\u001b[1;36m[libx264 @ 0x562dcf565e00] \u001b[0mref B L0: 91.5%  7.0%  1.5%\n",
            "\u001b[1;36m[libx264 @ 0x562dcf565e00] \u001b[0mref B L1: 97.2%  2.8%\n",
            "\u001b[1;36m[libx264 @ 0x562dcf565e00] \u001b[0mkb/s:3676.97\n"
          ],
          "name": "stdout"
        }
      ]
    },
    {
      "cell_type": "code",
      "metadata": {
        "id": "oCCVfsqqQeqo"
      },
      "source": [
        ""
      ],
      "execution_count": null,
      "outputs": []
    }
  ]
}